<svg width="13" height="14" viewBox="0 0 13 14" fill="none" xmlns="http://www.w3.org/2000/svg">
<path d="M0.433494 4.9693H2.93158V13.2457H0.433494V4.9693ZM1.67813 0.858398C2.4814 0.858398 3.12578 1.52233 3.12578 2.34996C3.12578 3.16851 2.4814 3.84153 1.67813 3.84153C0.874852 3.84153 0.230469 3.16851 0.230469 2.34996C0.230469 1.52233 0.874852 0.858398 1.67813 0.858398Z" fill="black"/>
<path d="M4.49399 4.9693H6.88616V6.09707H6.92147C7.2569 5.44224 8.069 4.76012 9.28715 4.76012C11.8117 4.76012 12.2796 6.46996 12.2796 8.69822V13.2366H9.78147V9.21663C9.78147 8.25256 9.76382 7.02475 8.48388 7.02475C7.18628 7.02475 6.98326 8.07067 6.98326 9.15296V13.2457H4.49399V4.9693Z" fill="black"/>
</svg>
